<svg xmlns="http://www.w3.org/2000/svg" width="390" height="844" viewBox="0 0 390 844">
    <title>移动端错题本</title>
    <rect width="390" height="844" fill="#F6F8FC"/>
    <rect x="0" y="0" width="390" height="54" rx="0" fill="#FFFFFF" stroke="#D9E0EA" stroke-width="1" opacity="1"/><line x1="16" y1="21" x2="34" y2="21" stroke="#1E293B" stroke-width="2"/><line x1="16" y1="26" x2="34" y2="26" stroke="#1E293B" stroke-width="2"/><line x1="16" y1="31" x2="34" y2="31" stroke="#1E293B" stroke-width="2"/><text x="48" y="34" font-family="'Noto Sans CJK SC', 'Microsoft YaHei', sans-serif" font-size="16" font-weight="700" fill="#1E293B" text-anchor="start">第二轮不会</text><circle cx="363.0" cy="27.0" r="6.0" fill="none" stroke="#1E293B" stroke-width="2"/><circle cx="363.0" cy="27.0" r="2.25" fill="none" stroke="#1E293B" stroke-width="2"/><text x="16" y="88" font-family="'Noto Sans CJK SC', 'Microsoft YaHei', sans-serif" font-size="13" font-weight="600" fill="#16A34A" text-anchor="start">错题本镜像结构 · 共 43 题</text><rect x="246" y="106" width="128" height="34" rx="6" fill="#2563EB" stroke="#2563EB" stroke-width="1" opacity="1"/><text x="310.0" y="128.0" font-family="'Noto Sans CJK SC', 'Microsoft YaHei', sans-serif" font-size="13" font-weight="600" fill="#FFFFFF" text-anchor="middle">重复刷题</text><rect x="14" y="170" width="362" height="46" rx="7" fill="#FFFFFF" stroke="#D9E0EA" stroke-width="1" opacity="1"/><path d="M29 190 h6 l3 3 h8 v8 h-14 z" fill="none" stroke="#64748B" stroke-width="1.8" stroke-linejoin="round"/><text x="54" y="199" font-family="'Noto Sans CJK SC', 'Microsoft YaHei', sans-serif" font-size="13" font-weight="600" fill="#1E293B" text-anchor="start">计算机网络</text><text x="350" y="199" font-family="'Noto Sans CJK SC', 'Microsoft YaHei', sans-serif" font-size="12" font-weight="600" fill="#64748B" text-anchor="end">43</text><rect x="14" y="224" width="362" height="46" rx="7" fill="#FFFFFF" stroke="#D9E0EA" stroke-width="1" opacity="1"/><path d="M47 244 h6 l3 3 h8 v8 h-14 z" fill="none" stroke="#64748B" stroke-width="1.8" stroke-linejoin="round"/><text x="72" y="253" font-family="'Noto Sans CJK SC', 'Microsoft YaHei', sans-serif" font-size="13" font-weight="600" fill="#1E293B" text-anchor="start">第一章 概述</text><text x="350" y="253" font-family="'Noto Sans CJK SC', 'Microsoft YaHei', sans-serif" font-size="12" font-weight="600" fill="#64748B" text-anchor="end">4</text><rect x="14" y="278" width="362" height="46" rx="7" fill="#FFFFFF" stroke="#D9E0EA" stroke-width="1" opacity="1"/><path d="M47 298 h6 l3 3 h8 v8 h-14 z" fill="none" stroke="#64748B" stroke-width="1.8" stroke-linejoin="round"/><text x="72" y="307" font-family="'Noto Sans CJK SC', 'Microsoft YaHei', sans-serif" font-size="13" font-weight="600" fill="#1E293B" text-anchor="start">第二章 物理层</text><text x="350" y="307" font-family="'Noto Sans CJK SC', 'Microsoft YaHei', sans-serif" font-size="12" font-weight="600" fill="#64748B" text-anchor="end">11</text><rect x="14" y="332" width="362" height="46" rx="7" fill="#FFFFFF" stroke="#D9E0EA" stroke-width="1" opacity="1"/><path d="M47 352 h6 l3 3 h8 v8 h-14 z" fill="none" stroke="#64748B" stroke-width="1.8" stroke-linejoin="round"/><text x="72" y="361" font-family="'Noto Sans CJK SC', 'Microsoft YaHei', sans-serif" font-size="13" font-weight="600" fill="#1E293B" text-anchor="start">第三章 TCP/IP</text><text x="350" y="361" font-family="'Noto Sans CJK SC', 'Microsoft YaHei', sans-serif" font-size="12" font-weight="600" fill="#64748B" text-anchor="end">28</text><rect x="14" y="386" width="362" height="46" rx="7" fill="#FFFFFF" stroke="#D9E0EA" stroke-width="1" opacity="1"/><path d="M65 406 h6 l3 3 h8 v8 h-14 z" fill="none" stroke="#64748B" stroke-width="1.8" stroke-linejoin="round"/><text x="90" y="415" font-family="'Noto Sans CJK SC', 'Microsoft YaHei', sans-serif" font-size="13" font-weight="600" fill="#1E293B" text-anchor="start">3.1 IP 地址</text><text x="350" y="415" font-family="'Noto Sans CJK SC', 'Microsoft YaHei', sans-serif" font-size="12" font-weight="600" fill="#64748B" text-anchor="end">9</text><rect x="14" y="440" width="362" height="46" rx="7" fill="#FFFFFF" stroke="#D9E0EA" stroke-width="1" opacity="1"/><path d="M65 460 h6 l3 3 h8 v8 h-14 z" fill="none" stroke="#64748B" stroke-width="1.8" stroke-linejoin="round"/><text x="90" y="469" font-family="'Noto Sans CJK SC', 'Microsoft YaHei', sans-serif" font-size="13" font-weight="600" fill="#1E293B" text-anchor="start">3.2 TCP</text><text x="350" y="469" font-family="'Noto Sans CJK SC', 'Microsoft YaHei', sans-serif" font-size="12" font-weight="600" fill="#64748B" text-anchor="end">19</text>
    </svg>