<svg xmlns="http://www.w3.org/2000/svg" width="390" height="844" viewBox="0 0 390 844">
    <title>移动端底部操作菜单</title>
    <rect width="390" height="844" fill="#F6F8FC"/>
    <rect x="0" y="0" width="390" height="54" rx="0" fill="#FFFFFF" stroke="#D9E0EA" stroke-width="1" opacity="1"/><line x1="16" y1="21" x2="34" y2="21" stroke="#1E293B" stroke-width="2"/><line x1="16" y1="26" x2="34" y2="26" stroke="#1E293B" stroke-width="2"/><line x1="16" y1="31" x2="34" y2="31" stroke="#1E293B" stroke-width="2"/><text x="48" y="34" font-family="'Noto Sans CJK SC', 'Microsoft YaHei', sans-serif" font-size="16" font-weight="700" fill="#1E293B" text-anchor="start">题库操作</text><circle cx="363.0" cy="27.0" r="6.0" fill="none" stroke="#1E293B" stroke-width="2"/><circle cx="363.0" cy="27.0" r="2.25" fill="none" stroke="#1E293B" stroke-width="2"/><rect x="0" y="54" width="390" height="790" rx="0" fill="#0F172A" stroke="none" stroke-width="1" opacity="0.18"/><rect x="0" y="448" width="390" height="396" rx="14" fill="#FFFFFF" stroke="#D9E0EA" stroke-width="1" opacity="1"/><text x="20" y="486" font-family="'Noto Sans CJK SC', 'Microsoft YaHei', sans-serif" font-size="16" font-weight="700" fill="#1E293B" text-anchor="start">计算机网络</text><polygon points="26,509 38,516.0 26,523" fill="#16A34A"/><text x="58" y="522" font-family="'Noto Sans CJK SC', 'Microsoft YaHei', sans-serif" font-size="14" font-weight="600" fill="#1E293B" text-anchor="start">开始背题</text><line x1="18" y1="540" x2="372" y2="540" stroke="#D9E0EA" stroke-width="1"/><polygon points="26,557 38,564.0 26,571" fill="#2563EB"/><text x="58" y="570" font-family="'Noto Sans CJK SC', 'Microsoft YaHei', sans-serif" font-size="14" font-weight="600" fill="#1E293B" text-anchor="start">开始刷题</text><line x1="18" y1="588" x2="372" y2="588" stroke="#D9E0EA" stroke-width="1"/><line x1="31.0" y1="605" x2="31.0" y2="619" stroke="#2563EB" stroke-width="2"/><line x1="24" y1="612.0" x2="38" y2="612.0" stroke="#2563EB" stroke-width="2"/><text x="58" y="618" font-family="'Noto Sans CJK SC', 'Microsoft YaHei', sans-serif" font-size="14" font-weight="600" fill="#1E293B" text-anchor="start">新建题目</text><line x1="18" y1="636" x2="372" y2="636" stroke="#D9E0EA" stroke-width="1"/><line x1="31.0" y1="667" x2="31.0" y2="657.3" stroke="#64748B" stroke-width="2"/><path d="M27.04 660.0 l3.96 -3.96 l3.96 3.96" fill="none" stroke="#64748B" stroke-width="2"/><line x1="24" y1="653" x2="38" y2="653" stroke="#64748B" stroke-width="2"/><text x="58" y="666" font-family="'Noto Sans CJK SC', 'Microsoft YaHei', sans-serif" font-size="14" font-weight="600" fill="#1E293B" text-anchor="start">批量导入</text><line x1="18" y1="684" x2="372" y2="684" stroke="#D9E0EA" stroke-width="1"/><path d="M25 713 l3-1 l10.44-10.44 l-2-2 l-10.44 10.44 z" fill="none" stroke="#64748B" stroke-width="1.7"/><text x="58" y="714" font-family="'Noto Sans CJK SC', 'Microsoft YaHei', sans-serif" font-size="14" font-weight="600" fill="#1E293B" text-anchor="start">重命名</text><line x1="18" y1="732" x2="372" y2="732" stroke="#D9E0EA" stroke-width="1"/><line x1="26" y1="752" x2="36" y2="752" stroke="#DC2626" stroke-width="1.8"/><line x1="29" y1="749" x2="33" y2="749" stroke="#DC2626" stroke-width="1.8"/><rect x="28" y="753" width="6" height="10" rx="2" fill="none" stroke="#DC2626" stroke-width="1" opacity="1"/><text x="58" y="762" font-family="'Noto Sans CJK SC', 'Microsoft YaHei', sans-serif" font-size="14" font-weight="600" fill="#DC2626" text-anchor="start">删除题库</text><line x1="18" y1="780" x2="372" y2="780" stroke="#D9E0EA" stroke-width="1"/>
    </svg>