<svg xmlns="http://www.w3.org/2000/svg" width="1440" height="900" viewBox="0 0 1440 900">
    <title>设置面板</title>
    <rect width="1440" height="900" fill="#F6F8FC"/>
    <rect x="0" y="0" width="1440" height="54" rx="0" fill="#FFFFFF" stroke="#D9E0EA" stroke-width="1" opacity="1"/><line x1="18" y1="20" x2="38" y2="20" stroke="#1E293B" stroke-width="2"/><line x1="18" y1="25" x2="38" y2="25" stroke="#1E293B" stroke-width="2"/><line x1="18" y1="30" x2="38" y2="30" stroke="#1E293B" stroke-width="2"/><text x="58" y="34" font-family="'Noto Sans CJK SC', 'Microsoft YaHei', sans-serif" font-size="18" font-weight="700" fill="#1E293B" text-anchor="start">知行笔记</text><rect x="575" y="11" width="110" height="32" rx="6" fill="#2563EB" stroke="#2563EB" stroke-width="1" opacity="1"/><text x="630.0" y="32.0" font-family="'Noto Sans CJK SC', 'Microsoft YaHei', sans-serif" font-size="13" font-weight="600" fill="#FFFFFF" text-anchor="middle">费曼笔记</text><rect x="696" y="11" width="110" height="32" rx="6" fill="#FFFFFF" stroke="#2563EB" stroke-width="1" opacity="1"/><text x="751.0" y="32.0" font-family="'Noto Sans CJK SC', 'Microsoft YaHei', sans-serif" font-size="13" font-weight="600" fill="#1E293B" text-anchor="middle">背题刷题</text><circle cx="1398.0" cy="27.0" r="6.666666666666667" fill="none" stroke="#1E293B" stroke-width="2"/><circle cx="1398.0" cy="27.0" r="2.5" fill="none" stroke="#1E293B" stroke-width="2"/><rect x="0" y="54" width="240" height="846" rx="0" fill="#F8FAFC" stroke="#D9E0EA" stroke-width="1" opacity="1"/><rect x="14" y="70" width="212" height="36" rx="8" fill="#FFFFFF" stroke="#D9E0EA" stroke-width="1" opacity="1"/><circle cx="33.14" cy="86.14" r="4.760000000000001" fill="none" stroke="#64748B" stroke-width="2"/><line x1="36.54" y1="89.53999999999999" x2="41.3" y2="94.3" stroke="#64748B" stroke-width="2"/><text x="52" y="94" font-family="'Noto Sans CJK SC', 'Microsoft YaHei', sans-serif" font-size="13" font-weight="400" fill="#64748B" text-anchor="start">搜索目录</text><text x="264" y="88" font-family="'Noto Sans CJK SC', 'Microsoft YaHei', sans-serif" font-size="18" font-weight="700" fill="#1E293B" text-anchor="start">我的笔记 &gt; 计算机网络 &gt; TCP 三次握手</text><path d="M19 125 h6 l3 3 h8 v8 h-14 z" fill="none" stroke="#64748B" stroke-width="1.8" stroke-linejoin="round"/><text x="40" y="134" font-family="'Noto Sans CJK SC', 'Microsoft YaHei', sans-serif" font-size="13" font-weight="400" fill="#1E293B" text-anchor="start">我的笔记</text><path d="M39 157 h6 l3 3 h8 v8 h-14 z" fill="none" stroke="#64748B" stroke-width="1.8" stroke-linejoin="round"/><text x="60" y="166" font-family="'Noto Sans CJK SC', 'Microsoft YaHei', sans-serif" font-size="13" font-weight="400" fill="#1E293B" text-anchor="start">计算机网络</text><rect x="0" y="54" width="1440" height="846" rx="0" fill="#0F172A" stroke="none" stroke-width="1" opacity="0.18"/><rect x="1050" y="54" width="390" height="846" rx="0" fill="#FFFFFF" stroke="#D9E0EA" stroke-width="1" opacity="1"/><text x="1080" y="100" font-family="'Noto Sans CJK SC', 'Microsoft YaHei', sans-serif" font-size="22" font-weight="700" fill="#1E293B" text-anchor="start">设置</text><line x1="1391" y1="81" x2="1403" y2="93" stroke="#64748B" stroke-width="2"/><line x1="1403" y1="81" x2="1391" y2="93" stroke="#64748B" stroke-width="2"/><text x="1080" y="144" font-family="'Noto Sans CJK SC', 'Microsoft YaHei', sans-serif" font-size="14" font-weight="600" fill="#1E293B" text-anchor="start">主题模式</text><text x="1380" y="144" font-family="'Noto Sans CJK SC', 'Microsoft YaHei', sans-serif" font-size="13" font-weight="600" fill="#2563EB" text-anchor="end">跟随系统</text><line x1="1080" y1="162" x2="1400" y2="162" stroke="#D9E0EA" stroke-width="1"/><text x="1080" y="202" font-family="'Noto Sans CJK SC', 'Microsoft YaHei', sans-serif" font-size="14" font-weight="600" fill="#1E293B" text-anchor="start">编辑器字号</text><text x="1380" y="202" font-family="'Noto Sans CJK SC', 'Microsoft YaHei', sans-serif" font-size="13" font-weight="600" fill="#2563EB" text-anchor="end">16 px</text><line x1="1080" y1="220" x2="1400" y2="220" stroke="#D9E0EA" stroke-width="1"/><text x="1080" y="260" font-family="'Noto Sans CJK SC', 'Microsoft YaHei', sans-serif" font-size="14" font-weight="600" fill="#1E293B" text-anchor="start">行间距</text><text x="1380" y="260" font-family="'Noto Sans CJK SC', 'Microsoft YaHei', sans-serif" font-size="13" font-weight="600" fill="#2563EB" text-anchor="end">1.6</text><line x1="1080" y1="278" x2="1400" y2="278" stroke="#D9E0EA" stroke-width="1"/><text x="1080" y="318" font-family="'Noto Sans CJK SC', 'Microsoft YaHei', sans-serif" font-size="14" font-weight="600" fill="#1E293B" text-anchor="start">打字机模式</text><text x="1380" y="318" font-family="'Noto Sans CJK SC', 'Microsoft YaHei', sans-serif" font-size="13" font-weight="600" fill="#2563EB" text-anchor="end">关闭</text><line x1="1080" y1="336" x2="1400" y2="336" stroke="#D9E0EA" stroke-width="1"/><text x="1080" y="376" font-family="'Noto Sans CJK SC', 'Microsoft YaHei', sans-serif" font-size="14" font-weight="600" fill="#1E293B" text-anchor="start">专注模式</text><text x="1380" y="376" font-family="'Noto Sans CJK SC', 'Microsoft YaHei', sans-serif" font-size="13" font-weight="600" fill="#2563EB" text-anchor="end">关闭</text><line x1="1080" y1="394" x2="1400" y2="394" stroke="#D9E0EA" stroke-width="1"/><text x="1080" y="434" font-family="'Noto Sans CJK SC', 'Microsoft YaHei', sans-serif" font-size="14" font-weight="600" fill="#1E293B" text-anchor="start">目录栏宽度</text><text x="1380" y="434" font-family="'Noto Sans CJK SC', 'Microsoft YaHei', sans-serif" font-size="13" font-weight="600" fill="#2563EB" text-anchor="end">240 px</text><line x1="1080" y1="452" x2="1400" y2="452" stroke="#D9E0EA" stroke-width="1"/><text x="1080" y="492" font-family="'Noto Sans CJK SC', 'Microsoft YaHei', sans-serif" font-size="14" font-weight="600" fill="#1E293B" text-anchor="start">自动保存</text><text x="1380" y="492" font-family="'Noto Sans CJK SC', 'Microsoft YaHei', sans-serif" font-size="13" font-weight="600" fill="#2563EB" text-anchor="end">500 ms 防抖</text><line x1="1080" y1="510" x2="1400" y2="510" stroke="#D9E0EA" stroke-width="1"/><text x="1080" y="550" font-family="'Noto Sans CJK SC', 'Microsoft YaHei', sans-serif" font-size="14" font-weight="600" fill="#1E293B" text-anchor="start">历史版本</text><text x="1380" y="550" font-family="'Noto Sans CJK SC', 'Microsoft YaHei', sans-serif" font-size="13" font-weight="600" fill="#2563EB" text-anchor="end">保留最近 10 个</text><line x1="1080" y1="568" x2="1400" y2="568" stroke="#D9E0EA" stroke-width="1"/><rect x="1080" y="670" width="150" height="36" rx="6" fill="#FFFFFF" stroke="#D9E0EA" stroke-width="1" opacity="1"/><text x="1155.0" y="693.0" font-family="'Noto Sans CJK SC', 'Microsoft YaHei', sans-serif" font-size="13" font-weight="600" fill="#1E293B" text-anchor="middle">导出完整备份</text><rect x="1242" y="670" width="120" height="36" rx="6" fill="#2563EB" stroke="#2563EB" stroke-width="1" opacity="1"/><text x="1302.0" y="693.0" font-family="'Noto Sans CJK SC', 'Microsoft YaHei', sans-serif" font-size="13" font-weight="600" fill="#FFFFFF" text-anchor="middle">恢复备份</text><text x="1080" y="738" font-family="'Noto Sans CJK SC', 'Microsoft YaHei', sans-serif" font-size="12" font-weight="400" fill="#DC2626" text-anchor="start">数据仅保存在当前浏览器中，请定期导出备份。</text>
    </svg>